<svg id="Machtiging-icon" xmlns="http://www.w3.org/2000/svg" viewBox="0 0 34.552 33.626">
  <defs>
    <style>
      .cls-1 {
        fill: #fff;
      }
    </style>
  </defs>
  <path id="Path_4" data-name="Path 4" class="cls-1" d="M87.97,18.128H88.2A6.421,6.421,0,0,0,93.108,16c2.682-3.021,2.238-8.2,2.185-8.7C95.119,3.6,93.36,1.82,91.915.984A7.747,7.747,0,0,0,88.171,0h-.122A7.669,7.669,0,0,0,84.3.958c-1.463.827-3.248,2.6-3.422,6.347-.052.5-.5,5.677,2.185,8.7a6.418,6.418,0,0,0,4.9,2.124ZM82.738,7.471c0-.017.009-.044.009-.052.226-5,3.779-5.529,5.294-5.529h.087c1.881.044,5.076.81,5.294,5.529,0,.017,0,.044.009.052.009.052.5,4.789-1.724,7.279a4.536,4.536,0,0,1-3.587,1.489h-.07A4.574,4.574,0,0,1,84.47,14.75c-2.212-2.473-1.741-7.235-1.733-7.279Zm0,0" transform="translate(-73.793 0)"/>
  <g id="Group_2" data-name="Group 2" transform="translate(0 18.066)">
    <path id="Path_5" data-name="Path 5" class="cls-1" d="M208.471,209.263a21.767,21.767,0,0,0,6.356,2.908,2.229,2.229,0,0,1,.592.3,5.478,5.478,0,0,1,1.872-.818,4.191,4.191,0,0,0-1.9-1.28.2.2,0,0,0-.07-.017,20.192,20.192,0,0,1-5.781-2.629.935.935,0,1,0-1.071,1.532Z" transform="translate(-189.957 -207.555)"/>
    <path id="Path_6" data-name="Path 6" class="cls-1" d="M23.7,219.646a27.922,27.922,0,0,1-9.325,1.55,25.694,25.694,0,0,1-12.285-2.865,12.274,12.274,0,0,1-.148-2.151c0-.052.009-.113.009-.174.052-1.585.226-3.326,1.855-3.9a21.634,21.634,0,0,0,6.356-2.908.937.937,0,1,0-1.08-1.532A20.053,20.053,0,0,1,3.3,210.295a.268.268,0,0,1-.07.017C.212,211.348.116,214.579.081,215.946a1.11,1.11,0,0,1-.009.174v.017a10.426,10.426,0,0,0,.357,3.152.851.851,0,0,0,.366.435c.209.139,5.215,3.326,13.6,3.326A29.62,29.62,0,0,0,24.922,221.2,5.253,5.253,0,0,1,23.7,219.646Z" transform="translate(-0.07 -207.49)"/>
  </g>
  <g id="Group_3" data-name="Group 3" transform="translate(24.661 22.69)">
    <path id="Path_7" data-name="Path 7" class="cls-1" d="M288.246,270.491a4.946,4.946,0,1,1,4.946-4.946A4.953,4.953,0,0,1,288.246,270.491Zm0-9.116a4.162,4.162,0,1,0,4.162,4.162A4.167,4.167,0,0,0,288.246,261.375Z" transform="translate(-283.3 -260.6)"/>
  </g>
  <path id="Path_8" data-name="Path 8" class="cls-1" d="M335.992,293.359a.39.39,0,0,1-.392-.392v-4.275a.392.392,0,1,1,.784,0v4.275A.4.4,0,0,1,335.992,293.359Z" transform="translate(-306.386 -263.198)"/>
  <path id="Path_9" data-name="Path 9" class="cls-1" d="M315.667,313.584h-4.275a.392.392,0,1,1,0-.784h4.275a.392.392,0,1,1,0,.784Z" transform="translate(-283.927 -285.565)"/>
</svg>
