<svg id="Gegevens-verwijderen-icon" xmlns="http://www.w3.org/2000/svg" viewBox="0 0 33.647 36.985">
  <defs>
    <style>
      .cls-1 {
        fill: #fff;
      }
    </style>
  </defs>
  <path id="Path_1" data-name="Path 1" class="cls-1" d="M25.2,16.007v-7a.829.829,0,0,0-.224-.535L17.134.238A.787.787,0,0,0,16.571,0H4.132A4.143,4.143,0,0,0,0,4.168V27.7a4.119,4.119,0,0,0,4.132,4.139h9.824A10.6,10.6,0,1,0,25.2,16.007Zm-7.859-13.3,5.266,5.54H19.193a1.859,1.859,0,0,1-1.849-1.856ZM4.132,30.3a2.584,2.584,0,0,1-2.593-2.6V4.168A2.6,2.6,0,0,1,4.132,1.539H15.805V6.386a3.4,3.4,0,0,0,3.4,3.4h4.471v6.017c-.231-.007-.419-.029-.614-.029a10.758,10.758,0,0,0-7.029,2.651h-9.8a.773.773,0,0,0,0,1.546h8.358a12.107,12.107,0,0,0-1.358,2.391h-7a.773.773,0,0,0,0,1.546h6.5a10.271,10.271,0,0,0-.3,2.485,10.167,10.167,0,0,0,.758,3.915H4.132Zm18.911,5.158A9.058,9.058,0,1,1,32.1,26.395a9.068,9.068,0,0,1-9.058,9.058Zm0,0"/>
  <path id="Path_2" data-name="Path 2" class="cls-1" d="M76.273,203.146h7.809a.773.773,0,0,0,0-1.546H76.273a.774.774,0,0,0-.773.773.783.783,0,0,0,.773.773Zm0,0" transform="translate(-70.046 -187.037)"/>
  <path id="Path_3" data-name="Path 3" class="cls-1" d="M234.225,273.088v-.52A1.59,1.59,0,0,0,232.658,271h-3.084a1.547,1.547,0,0,0-1.517,1.568v.52h-2.983a.773.773,0,1,0,0,1.546h.9l.823,9.333a.759.759,0,0,0,.773.686h7.115a.775.775,0,0,0,.773-.686l.823-9.333h.9a.773.773,0,1,0,0-1.546Zm-4.623-.542h3.084v.542H229.6Zm4.37,10.561h-5.707l-.751-8.48h7.209Zm0,0" transform="translate(-208.098 -251.424)"/>
</svg>
