<svg xmlns="http://www.w3.org/2000/svg" viewBox="0 0 32.998 32.997">
  <defs>
    <style>
      .cls-1 {
        fill: #fff;
      }
    </style>
  </defs>
  <path id="log-out-icon" class="cls-1" d="M3.138,33C1.363,33,0,31,0,28.626V4.372C0,1.987,1.356,0,3.138,0H14.622c1.774,0,3.138,2,3.138,4.372v.683H16.5V4.372c0-1.69-.9-3-1.878-3H3.138c-.99,0-1.878,1.3-1.878,3V28.626c0,1.69.9,3.005,1.878,3.005H14.622c.99,0,1.878-1.3,1.878-3.005v-.683h1.259v.683C17.759,31.011,16.4,33,14.622,33Zm20.251-8,7.829-8.5-.244-.265H10.063V14.867H29.714L23.389,8l.889-.967,7.829,8.5h0L33,16.5l-.889.967h0l-7.829,8.5Z"/>
</svg>
