<svg xmlns="http://www.w3.org/2000/svg" viewBox="0 0 477.757 104.247"><g transform="translate(0 0)"><g transform="translate(0 0.681)"><path d="M0,1.3H15.139L28.5,32.574,41.856,1.3H57L28.5,64.529Z" transform="translate(0 -1.3)"/></g><g transform="translate(63.806 0.681)"><path d="M121.8,1.3h13.62V63.848H121.8Z" transform="translate(-121.8 -1.3)"/></g><g transform="translate(87.484 0.681)"><path d="M167,1.3h21.164a29.972,29.972,0,0,1,12,2.462,30.823,30.823,0,0,1,9.744,6.705,31.616,31.616,0,0,1,6.548,9.953,30.688,30.688,0,0,1,2.41,12.153,30.578,30.578,0,0,1-2.41,12.206,32.935,32.935,0,0,1-6.548,9.9,31.09,31.09,0,0,1-9.744,6.705,29.788,29.788,0,0,1-12,2.462H167Zm21.216,49.714a16.043,16.043,0,0,0,12.258-5.448,17.861,17.861,0,0,0,3.51-5.867,20.192,20.192,0,0,0,1.257-7.124,19.984,19.984,0,0,0-1.257-7.124,17.862,17.862,0,0,0-3.51-5.867,17.39,17.39,0,0,0-5.343-3.981,16.682,16.682,0,0,0-6.915-1.467h-7.6V50.962h7.6Z" transform="translate(-167 -1.3)"/></g><g transform="translate(146.732 0.681)"><path d="M280.1,1.3h37.4V15.235H293.668V25.816h18.7V39.384h-18.7V49.966H317.5V63.9H280.1Z" transform="translate(-280.1 -1.3)"/></g><g transform="translate(187.488 0)"><path d="M388.807,63.91a29.147,29.147,0,0,1-12-2.515,32.349,32.349,0,0,1-9.849-6.863A32.159,32.159,0,0,1,357.9,31.955,31.9,31.9,0,0,1,376.811,2.515a29.873,29.873,0,0,1,23.993,0,32.349,32.349,0,0,1,9.848,6.863,32.159,32.159,0,0,1,9.063,22.578A31.9,31.9,0,0,1,400.8,61.4,29.148,29.148,0,0,1,388.807,63.91Zm0-13.515a15.6,15.6,0,0,0,6.81-1.467,16.457,16.457,0,0,0,5.448-3.981,19.193,19.193,0,0,0,4.924-12.992,19.193,19.193,0,0,0-4.924-12.992,17.222,17.222,0,0,0-5.448-3.981,16.375,16.375,0,0,0-6.81-1.467A15.6,15.6,0,0,0,382,14.982a17.222,17.222,0,0,0-5.448,3.981,19.193,19.193,0,0,0-4.924,12.992,19.193,19.193,0,0,0,4.924,12.992A17.222,17.222,0,0,0,382,48.928,16.375,16.375,0,0,0,388.807,50.395Z" transform="translate(-357.9 0)"/></g><g transform="translate(256.218 0.681)"><path d="M489.1,1.3h13.62V49.861h23.469V63.848H489.1Z" transform="translate(-489.1 -1.3)"/></g><g transform="translate(299.96 0)"><path d="M602.355,0,632.11,63.229H617.861l-4.348-9.691H591.249L586.9,63.229H572.6Zm5.71,42.118-5.71-13.044-5.71,13.044Z" transform="translate(-572.6)"/></g><g transform="translate(366.28 0)"><path d="M712.82,30.541V63.229H699.2V0l38.137,33.37V.681h13.62V63.91Z" transform="translate(-699.2)"/></g><g transform="translate(425.895 0.681)"><path d="M813,1.3h21.164a29.972,29.972,0,0,1,12,2.462,30.823,30.823,0,0,1,9.744,6.705,31.616,31.616,0,0,1,6.548,9.953,30.689,30.689,0,0,1,2.41,12.153,30.579,30.579,0,0,1-2.41,12.206,32.934,32.934,0,0,1-6.548,9.9,31.089,31.089,0,0,1-9.744,6.705,29.788,29.788,0,0,1-12,2.462H813Zm21.164,49.714a16.042,16.042,0,0,0,12.258-5.448,17.861,17.861,0,0,0,3.51-5.867,20.193,20.193,0,0,0,1.257-7.124,19.984,19.984,0,0,0-1.257-7.124,17.86,17.86,0,0,0-3.51-5.867,17.39,17.39,0,0,0-5.343-3.981,16.682,16.682,0,0,0-6.915-1.467h-7.6V50.962h7.6Z" transform="translate(-813 -1.3)"/></g><path d="M345.8,147.6h9.744a7.271,7.271,0,0,1,2.986.629,7.474,7.474,0,0,1,2.462,1.729,8.707,8.707,0,0,1,1.676,2.567,7.765,7.765,0,0,1,.629,3.091,6.6,6.6,0,0,1-.471,2.567,6.832,6.832,0,0,1-1.31,2.043,7.685,7.685,0,0,1,2.672,2.515,6.758,6.758,0,0,1,1,3.772,8.018,8.018,0,0,1-.629,3.143,7.063,7.063,0,0,1-1.676,2.515,7.3,7.3,0,0,1-2.514,1.676,7.583,7.583,0,0,1-3.091.629h-11.42V147.6Zm9.115,10.9a2.606,2.606,0,0,0,1.938-.786,2.656,2.656,0,0,0,0-3.772,2.606,2.606,0,0,0-1.938-.786h-3.248V158.5h3.248Zm1.781,10.425a2.606,2.606,0,0,0,1.938-.786,2.656,2.656,0,0,0,0-3.772,2.606,2.606,0,0,0-1.938-.786h-5.029v5.343H356.7Z" transform="translate(-164.651 -70.279)"/><path d="M389.087,163.211,379.5,147.6h6.81l5.71,9.534,5.71-9.534h6.81l-9.587,15.611v11.263h-5.867Z" transform="translate(-180.697 -70.279)"/><path d="M459.12,163.578h-.052v10.9H453.2V147.6H463a7.271,7.271,0,0,1,2.986.629,7.475,7.475,0,0,1,2.462,1.729,8.707,8.707,0,0,1,1.676,2.567,7.764,7.764,0,0,1,.629,3.091,8.172,8.172,0,0,1-1.362,4.558,7.921,7.921,0,0,1-3.615,2.934l8.434,11.368h-6.967Zm3.248-5.081a2.606,2.606,0,0,0,1.938-.786,2.656,2.656,0,0,0,0-3.772,2.606,2.606,0,0,0-1.938-.786h-3.3V158.5h3.3Z" transform="translate(-215.789 -70.279)"/><path d="M498.634,153.672H492.4V147.7h18.283v5.972h-6.234v20.9h-5.867v-20.9Z" transform="translate(-234.453 -70.326)"/><path d="M535.4,147.6h5.867v20.849h10.11v6.024H535.452V147.6Z" transform="translate(-254.928 -70.279)"/></g></svg>