<svg xmlns="http://www.w3.org/2000/svg" viewBox="0 0 32.998 32.998">
  <defs>
    <style>
      .cls-1 {
        fill: #fff;
      }
    </style>
  </defs>
  <path id="dashboard-icon" class="cls-1" d="M30.247,33H21.083a2.753,2.753,0,0,1-2.75-2.75V21.083a2.753,2.753,0,0,1,2.75-2.75h9.165A2.753,2.753,0,0,1,33,21.083v9.165A2.753,2.753,0,0,1,30.247,33ZM21.083,20.165a.919.919,0,0,0-.918.918v9.165a.919.919,0,0,0,.918.918h9.165a.919.919,0,0,0,.918-.918V21.083a.919.919,0,0,0-.918-.918ZM11.916,33H2.75A2.753,2.753,0,0,1,0,30.247V21.083a2.753,2.753,0,0,1,2.75-2.75h9.166a2.753,2.753,0,0,1,2.75,2.75v9.165A2.753,2.753,0,0,1,11.916,33ZM2.75,20.165a.918.918,0,0,0-.916.918v9.165a.918.918,0,0,0,.916.918h9.166a.918.918,0,0,0,.916-.918V21.083a.918.918,0,0,0-.916-.918Zm27.5-5.5H21.083a2.753,2.753,0,0,1-2.75-2.75V2.75A2.753,2.753,0,0,1,21.083,0h9.165A2.753,2.753,0,0,1,33,2.75v9.166A2.753,2.753,0,0,1,30.247,14.666ZM21.083,1.834a.918.918,0,0,0-.918.916v9.166a.918.918,0,0,0,.918.916h9.165a.918.918,0,0,0,.918-.916V2.75a.918.918,0,0,0-.918-.916ZM11.916,14.666H2.75A2.753,2.753,0,0,1,0,11.916V2.75A2.753,2.753,0,0,1,2.75,0h9.166a2.753,2.753,0,0,1,2.75,2.75v9.166A2.753,2.753,0,0,1,11.916,14.666ZM2.75,1.834a.917.917,0,0,0-.916.916v9.166a.917.917,0,0,0,.916.916h9.166a.917.917,0,0,0,.916-.916V2.75a.917.917,0,0,0-.916-.916Z" transform="translate(0)"/>
</svg>
