<svg xmlns="http://www.w3.org/2000/svg" viewBox="0 0 27.499 27.498">
  <defs>
    <style>
      .cls-1 {
        fill: #fff;
      }
    </style>
  </defs>
  <path id="settings-icon" class="cls-1" d="M15.684,27.5H11.83a2.053,2.053,0,0,1-2.081-1.82l-.136-1.43A11.53,11.53,0,0,1,6.3,22.428l-1.365.584a2.261,2.261,0,0,1-.891.183,2.074,2.074,0,0,1-1.8-.995L.3,19.014a1.932,1.932,0,0,1,.58-2.632l1.229-.813a10.789,10.789,0,0,1-.171-1.82,10.564,10.564,0,0,1,.171-1.82L.879,11.116A1.977,1.977,0,0,1,.265,8.484L2.209,5.3a2.075,2.075,0,0,1,1.805-1,2.258,2.258,0,0,1,.89.183l1.365.585a11.538,11.538,0,0,1,3.309-1.82l.137-1.43A2.051,2.051,0,0,1,11.8,0h3.855a2.053,2.053,0,0,1,2.081,1.82l.136,1.43a11.5,11.5,0,0,1,3.309,1.82l1.365-.585a2.261,2.261,0,0,1,.891-.183,2.074,2.074,0,0,1,1.8,1l1.945,3.185a1.925,1.925,0,0,1-.615,2.632l-1.228.813a10.948,10.948,0,0,1,.171,1.82,10.6,10.6,0,0,1-.171,1.82l1.262.813a1.925,1.925,0,0,1,.614,2.632L25.272,22.2a2.075,2.075,0,0,1-1.8.995,2.261,2.261,0,0,1-.891-.183l-1.365-.584A11.569,11.569,0,0,1,17.9,24.247l-.137,1.43A2.051,2.051,0,0,1,15.684,27.5ZM6.542,20.9h0l.34.291a10.659,10.659,0,0,0,3.582,1.984l.41.13.205,2.274a.7.7,0,0,0,.716.651h3.923a.726.726,0,0,0,.716-.651l.2-2.274.41-.13a10.652,10.652,0,0,0,3.582-1.984l.342-.292,2.149.943a.968.968,0,0,0,.317.056.73.73,0,0,0,.638-.349l1.876-3.185a.608.608,0,0,0,.093-.473.674.674,0,0,0-.3-.436l-1.945-1.3.1-.423a9.725,9.725,0,0,0,0-3.965l-.1-.423,1.945-1.3a.649.649,0,0,0,.2-.911L24.01,5.948a.773.773,0,0,0-.645-.363.71.71,0,0,0-.31.071L20.9,6.6l-.342-.292a10.654,10.654,0,0,0-3.582-1.982l-.41-.131-.2-2.274a.7.7,0,0,0-.716-.651H11.8a.724.724,0,0,0-.716.651l-.205,2.274-.41.131A10.654,10.654,0,0,0,6.883,6.306l-.34.292L4.393,5.656A.965.965,0,0,0,4.074,5.6a.727.727,0,0,0-.637.348L1.492,9.133a.609.609,0,0,0-.093.473.679.679,0,0,0,.3.438l1.944,1.3-.1.423a9.668,9.668,0,0,0,0,3.965l.1.423L1.7,17.455a.643.643,0,0,0-.306.395.678.678,0,0,0,.067.515L3.438,21.55a.771.771,0,0,0,.646.363.716.716,0,0,0,.309-.07L6.541,20.9Zm7.205-.276a6.874,6.874,0,1,1,6.875-6.875A6.882,6.882,0,0,1,13.748,20.624Zm0-12.368a5.493,5.493,0,1,0,5.493,5.493A5.5,5.5,0,0,0,13.748,8.256Z"/>
</svg>
